<mxfile host="app.diagrams.net" modified="2023-01-29T11:17:33.298Z" agent="5.0 (Macintosh; Intel Mac OS X 10_15_7) AppleWebKit/537.36 (KHTML, like Gecko) Chrome/109.0.0.0 Safari/537.36" etag="fDsLrBl8T6AEiEzq-e4_" version="20.8.4" type="github" pages="3">
  <diagram id="nzBmkMPrk7mMpimpwruT" name="Page-1">
    <mxGraphModel dx="1747" dy="978" grid="0" gridSize="10" guides="1" tooltips="1" connect="1" arrows="1" fold="1" page="1" pageScale="1" pageWidth="3300" pageHeight="2339" math="0" shadow="0">
      <root>
        <mxCell id="0" />
        <mxCell id="1" parent="0" />
        <mxCell id="H_skXorjpsQgcDwNgDX4-73" style="edgeStyle=orthogonalEdgeStyle;rounded=0;orthogonalLoop=1;jettySize=auto;html=1;" parent="1" edge="1">
          <mxGeometry relative="1" as="geometry">
            <mxPoint x="232.0344827586207" y="211.9999999999999" as="sourcePoint" />
            <mxPoint x="155" y="507.5" as="targetPoint" />
            <Array as="points">
              <mxPoint x="232" y="242" />
              <mxPoint x="155" y="242" />
            </Array>
          </mxGeometry>
        </mxCell>
        <mxCell id="H_skXorjpsQgcDwNgDX4-77" style="edgeStyle=orthogonalEdgeStyle;rounded=0;orthogonalLoop=1;jettySize=auto;html=1;exitX=0.5;exitY=1;exitDx=0;exitDy=0;" parent="1" source="H_skXorjpsQgcDwNgDX4-1" target="H_skXorjpsQgcDwNgDX4-2" edge="1">
          <mxGeometry relative="1" as="geometry" />
        </mxCell>
        <mxCell id="H_skXorjpsQgcDwNgDX4-78" style="edgeStyle=orthogonalEdgeStyle;rounded=0;orthogonalLoop=1;jettySize=auto;html=1;exitX=0.5;exitY=1;exitDx=0;exitDy=0;" parent="1" source="H_skXorjpsQgcDwNgDX4-1" target="H_skXorjpsQgcDwNgDX4-3" edge="1">
          <mxGeometry relative="1" as="geometry" />
        </mxCell>
        <mxCell id="H_skXorjpsQgcDwNgDX4-79" style="edgeStyle=orthogonalEdgeStyle;rounded=0;orthogonalLoop=1;jettySize=auto;html=1;exitX=0.5;exitY=1;exitDx=0;exitDy=0;" parent="1" source="H_skXorjpsQgcDwNgDX4-1" target="H_skXorjpsQgcDwNgDX4-4" edge="1">
          <mxGeometry relative="1" as="geometry" />
        </mxCell>
        <mxCell id="H_skXorjpsQgcDwNgDX4-80" style="edgeStyle=orthogonalEdgeStyle;rounded=0;orthogonalLoop=1;jettySize=auto;html=1;exitX=0.5;exitY=1;exitDx=0;exitDy=0;" parent="1" source="H_skXorjpsQgcDwNgDX4-1" target="H_skXorjpsQgcDwNgDX4-5" edge="1">
          <mxGeometry relative="1" as="geometry" />
        </mxCell>
        <mxCell id="H_skXorjpsQgcDwNgDX4-81" style="edgeStyle=orthogonalEdgeStyle;rounded=0;orthogonalLoop=1;jettySize=auto;html=1;exitX=0.5;exitY=1;exitDx=0;exitDy=0;" parent="1" source="H_skXorjpsQgcDwNgDX4-1" target="H_skXorjpsQgcDwNgDX4-19" edge="1">
          <mxGeometry relative="1" as="geometry" />
        </mxCell>
        <mxCell id="H_skXorjpsQgcDwNgDX4-1" value="项目经理" style="rounded=0;whiteSpace=wrap;html=1;" parent="1" vertex="1">
          <mxGeometry x="172" y="154" width="120" height="60" as="geometry" />
        </mxCell>
        <mxCell id="H_skXorjpsQgcDwNgDX4-24" style="edgeStyle=orthogonalEdgeStyle;rounded=0;orthogonalLoop=1;jettySize=auto;html=1;exitX=0.5;exitY=1;exitDx=0;exitDy=0;" parent="1" source="H_skXorjpsQgcDwNgDX4-2" target="H_skXorjpsQgcDwNgDX4-23" edge="1">
          <mxGeometry relative="1" as="geometry" />
        </mxCell>
        <mxCell id="H_skXorjpsQgcDwNgDX4-2" value="盲点检测负责人" style="rounded=0;whiteSpace=wrap;html=1;" parent="1" vertex="1">
          <mxGeometry x="267" y="269" width="120" height="60" as="geometry" />
        </mxCell>
        <mxCell id="H_skXorjpsQgcDwNgDX4-82" style="edgeStyle=orthogonalEdgeStyle;rounded=0;orthogonalLoop=1;jettySize=auto;html=1;exitX=0.5;exitY=1;exitDx=0;exitDy=0;" parent="1" source="H_skXorjpsQgcDwNgDX4-3" target="H_skXorjpsQgcDwNgDX4-57" edge="1">
          <mxGeometry relative="1" as="geometry" />
        </mxCell>
        <mxCell id="H_skXorjpsQgcDwNgDX4-3" value="注意力检测负责人" style="rounded=0;whiteSpace=wrap;html=1;" parent="1" vertex="1">
          <mxGeometry x="434" y="269" width="120" height="60" as="geometry" />
        </mxCell>
        <mxCell id="H_skXorjpsQgcDwNgDX4-83" style="edgeStyle=orthogonalEdgeStyle;rounded=0;orthogonalLoop=1;jettySize=auto;html=1;exitX=0.5;exitY=1;exitDx=0;exitDy=0;entryX=0.5;entryY=0;entryDx=0;entryDy=0;" parent="1" source="H_skXorjpsQgcDwNgDX4-4" target="H_skXorjpsQgcDwNgDX4-62" edge="1">
          <mxGeometry relative="1" as="geometry" />
        </mxCell>
        <mxCell id="H_skXorjpsQgcDwNgDX4-4" value="辅助刹车负责人" style="rounded=0;whiteSpace=wrap;html=1;" parent="1" vertex="1">
          <mxGeometry x="601" y="269" width="120" height="60" as="geometry" />
        </mxCell>
        <mxCell id="H_skXorjpsQgcDwNgDX4-84" style="edgeStyle=orthogonalEdgeStyle;rounded=0;orthogonalLoop=1;jettySize=auto;html=1;exitX=0.5;exitY=1;exitDx=0;exitDy=0;" parent="1" source="H_skXorjpsQgcDwNgDX4-5" target="H_skXorjpsQgcDwNgDX4-67" edge="1">
          <mxGeometry relative="1" as="geometry" />
        </mxCell>
        <mxCell id="H_skXorjpsQgcDwNgDX4-5" value="自适应巡航负责人" style="rounded=0;whiteSpace=wrap;html=1;" parent="1" vertex="1">
          <mxGeometry x="772" y="269" width="120" height="60" as="geometry" />
        </mxCell>
        <mxCell id="H_skXorjpsQgcDwNgDX4-85" style="edgeStyle=orthogonalEdgeStyle;rounded=0;orthogonalLoop=1;jettySize=auto;html=1;exitX=0.5;exitY=1;exitDx=0;exitDy=0;" parent="1" source="H_skXorjpsQgcDwNgDX4-19" target="H_skXorjpsQgcDwNgDX4-72" edge="1">
          <mxGeometry relative="1" as="geometry" />
        </mxCell>
        <mxCell id="H_skXorjpsQgcDwNgDX4-19" value="车道保持负责人" style="rounded=0;whiteSpace=wrap;html=1;" parent="1" vertex="1">
          <mxGeometry x="946" y="269" width="120" height="60" as="geometry" />
        </mxCell>
        <mxCell id="H_skXorjpsQgcDwNgDX4-26" style="edgeStyle=orthogonalEdgeStyle;rounded=0;orthogonalLoop=1;jettySize=auto;html=1;exitX=0.5;exitY=1;exitDx=0;exitDy=0;entryX=0.5;entryY=0;entryDx=0;entryDy=0;" parent="1" source="H_skXorjpsQgcDwNgDX4-21" target="H_skXorjpsQgcDwNgDX4-22" edge="1">
          <mxGeometry relative="1" as="geometry" />
        </mxCell>
        <mxCell id="H_skXorjpsQgcDwNgDX4-21" value="软&lt;br&gt;件&lt;br&gt;开&lt;br&gt;发&lt;br&gt;人&lt;br&gt;员" style="rounded=0;whiteSpace=wrap;html=1;" parent="1" vertex="1">
          <mxGeometry x="307.25" y="492" width="39.5" height="95" as="geometry" />
        </mxCell>
        <mxCell id="H_skXorjpsQgcDwNgDX4-22" value="软&lt;br&gt;件&lt;br&gt;测&lt;br&gt;试&lt;br&gt;人&lt;br&gt;员" style="rounded=0;whiteSpace=wrap;html=1;" parent="1" vertex="1">
          <mxGeometry x="307.25" y="621" width="39.5" height="95" as="geometry" />
        </mxCell>
        <mxCell id="H_skXorjpsQgcDwNgDX4-25" style="edgeStyle=orthogonalEdgeStyle;rounded=0;orthogonalLoop=1;jettySize=auto;html=1;exitX=0.5;exitY=1;exitDx=0;exitDy=0;" parent="1" source="H_skXorjpsQgcDwNgDX4-23" target="H_skXorjpsQgcDwNgDX4-21" edge="1">
          <mxGeometry relative="1" as="geometry" />
        </mxCell>
        <mxCell id="H_skXorjpsQgcDwNgDX4-23" value="算&lt;br&gt;法&lt;br&gt;设&lt;br&gt;计&lt;br&gt;人&lt;br&gt;员" style="rounded=0;whiteSpace=wrap;html=1;" parent="1" vertex="1">
          <mxGeometry x="307.25" y="363" width="39.5" height="95" as="geometry" />
        </mxCell>
        <mxCell id="H_skXorjpsQgcDwNgDX4-88" style="edgeStyle=orthogonalEdgeStyle;rounded=0;orthogonalLoop=1;jettySize=auto;html=1;exitX=1;exitY=0.5;exitDx=0;exitDy=0;entryX=0;entryY=0.5;entryDx=0;entryDy=0;" parent="1" source="H_skXorjpsQgcDwNgDX4-51" target="H_skXorjpsQgcDwNgDX4-86" edge="1">
          <mxGeometry relative="1" as="geometry" />
        </mxCell>
        <mxCell id="H_skXorjpsQgcDwNgDX4-90" style="edgeStyle=orthogonalEdgeStyle;rounded=0;orthogonalLoop=1;jettySize=auto;html=1;exitX=0.5;exitY=1;exitDx=0;exitDy=0;endArrow=none;endFill=0;" parent="1" source="H_skXorjpsQgcDwNgDX4-51" target="H_skXorjpsQgcDwNgDX4-52" edge="1">
          <mxGeometry relative="1" as="geometry" />
        </mxCell>
        <mxCell id="H_skXorjpsQgcDwNgDX4-51" value="软件开发负责人" style="rounded=0;whiteSpace=wrap;html=1;" parent="1" vertex="1">
          <mxGeometry x="95" y="506.5" width="120" height="60" as="geometry" />
        </mxCell>
        <mxCell id="H_skXorjpsQgcDwNgDX4-89" style="edgeStyle=orthogonalEdgeStyle;rounded=0;orthogonalLoop=1;jettySize=auto;html=1;exitX=1;exitY=0.5;exitDx=0;exitDy=0;entryX=0;entryY=0.5;entryDx=0;entryDy=0;" parent="1" source="H_skXorjpsQgcDwNgDX4-52" target="H_skXorjpsQgcDwNgDX4-87" edge="1">
          <mxGeometry relative="1" as="geometry" />
        </mxCell>
        <mxCell id="H_skXorjpsQgcDwNgDX4-52" value="软件测试负责人" style="rounded=0;whiteSpace=wrap;html=1;" parent="1" vertex="1">
          <mxGeometry x="95" y="640.5" width="120" height="60" as="geometry" />
        </mxCell>
        <mxCell id="H_skXorjpsQgcDwNgDX4-53" style="edgeStyle=orthogonalEdgeStyle;rounded=0;orthogonalLoop=1;jettySize=auto;html=1;exitX=0.5;exitY=1;exitDx=0;exitDy=0;entryX=0.5;entryY=0;entryDx=0;entryDy=0;" parent="1" source="H_skXorjpsQgcDwNgDX4-54" target="H_skXorjpsQgcDwNgDX4-55" edge="1">
          <mxGeometry relative="1" as="geometry" />
        </mxCell>
        <mxCell id="H_skXorjpsQgcDwNgDX4-54" value="软&lt;br&gt;件&lt;br&gt;开&lt;br&gt;发&lt;br&gt;人&lt;br&gt;员" style="rounded=0;whiteSpace=wrap;html=1;" parent="1" vertex="1">
          <mxGeometry x="474.25" y="492" width="39.5" height="95" as="geometry" />
        </mxCell>
        <mxCell id="H_skXorjpsQgcDwNgDX4-55" value="软&lt;br&gt;件&lt;br&gt;测&lt;br&gt;试&lt;br&gt;人&lt;br&gt;员" style="rounded=0;whiteSpace=wrap;html=1;" parent="1" vertex="1">
          <mxGeometry x="474.25" y="621" width="39.5" height="95" as="geometry" />
        </mxCell>
        <mxCell id="H_skXorjpsQgcDwNgDX4-56" style="edgeStyle=orthogonalEdgeStyle;rounded=0;orthogonalLoop=1;jettySize=auto;html=1;exitX=0.5;exitY=1;exitDx=0;exitDy=0;" parent="1" source="H_skXorjpsQgcDwNgDX4-57" target="H_skXorjpsQgcDwNgDX4-54" edge="1">
          <mxGeometry relative="1" as="geometry" />
        </mxCell>
        <mxCell id="H_skXorjpsQgcDwNgDX4-57" value="算&lt;br&gt;法&lt;br&gt;设&lt;br&gt;计&lt;br&gt;人&lt;br&gt;员" style="rounded=0;whiteSpace=wrap;html=1;" parent="1" vertex="1">
          <mxGeometry x="474.25" y="363" width="39.5" height="95" as="geometry" />
        </mxCell>
        <mxCell id="H_skXorjpsQgcDwNgDX4-58" style="edgeStyle=orthogonalEdgeStyle;rounded=0;orthogonalLoop=1;jettySize=auto;html=1;exitX=0.5;exitY=1;exitDx=0;exitDy=0;entryX=0.5;entryY=0;entryDx=0;entryDy=0;" parent="1" source="H_skXorjpsQgcDwNgDX4-59" target="H_skXorjpsQgcDwNgDX4-60" edge="1">
          <mxGeometry relative="1" as="geometry" />
        </mxCell>
        <mxCell id="H_skXorjpsQgcDwNgDX4-59" value="软&lt;br&gt;件&lt;br&gt;开&lt;br&gt;发&lt;br&gt;人&lt;br&gt;员" style="rounded=0;whiteSpace=wrap;html=1;" parent="1" vertex="1">
          <mxGeometry x="641.25" y="492" width="39.5" height="95" as="geometry" />
        </mxCell>
        <mxCell id="H_skXorjpsQgcDwNgDX4-60" value="软&lt;br&gt;件&lt;br&gt;测&lt;br&gt;试&lt;br&gt;人&lt;br&gt;员" style="rounded=0;whiteSpace=wrap;html=1;" parent="1" vertex="1">
          <mxGeometry x="641.25" y="621" width="39.5" height="95" as="geometry" />
        </mxCell>
        <mxCell id="H_skXorjpsQgcDwNgDX4-61" style="edgeStyle=orthogonalEdgeStyle;rounded=0;orthogonalLoop=1;jettySize=auto;html=1;exitX=0.5;exitY=1;exitDx=0;exitDy=0;" parent="1" source="H_skXorjpsQgcDwNgDX4-62" target="H_skXorjpsQgcDwNgDX4-59" edge="1">
          <mxGeometry relative="1" as="geometry" />
        </mxCell>
        <mxCell id="H_skXorjpsQgcDwNgDX4-62" value="算&lt;br&gt;法&lt;br&gt;设&lt;br&gt;计&lt;br&gt;人&lt;br&gt;员" style="rounded=0;whiteSpace=wrap;html=1;" parent="1" vertex="1">
          <mxGeometry x="641.25" y="363" width="39.5" height="95" as="geometry" />
        </mxCell>
        <mxCell id="H_skXorjpsQgcDwNgDX4-63" style="edgeStyle=orthogonalEdgeStyle;rounded=0;orthogonalLoop=1;jettySize=auto;html=1;exitX=0.5;exitY=1;exitDx=0;exitDy=0;entryX=0.5;entryY=0;entryDx=0;entryDy=0;" parent="1" source="H_skXorjpsQgcDwNgDX4-64" target="H_skXorjpsQgcDwNgDX4-65" edge="1">
          <mxGeometry relative="1" as="geometry" />
        </mxCell>
        <mxCell id="H_skXorjpsQgcDwNgDX4-64" value="软&lt;br&gt;件&lt;br&gt;开&lt;br&gt;发&lt;br&gt;人&lt;br&gt;员" style="rounded=0;whiteSpace=wrap;html=1;" parent="1" vertex="1">
          <mxGeometry x="812.25" y="492" width="39.5" height="95" as="geometry" />
        </mxCell>
        <mxCell id="H_skXorjpsQgcDwNgDX4-65" value="软&lt;br&gt;件&lt;br&gt;测&lt;br&gt;试&lt;br&gt;人&lt;br&gt;员" style="rounded=0;whiteSpace=wrap;html=1;" parent="1" vertex="1">
          <mxGeometry x="812.25" y="621" width="39.5" height="95" as="geometry" />
        </mxCell>
        <mxCell id="H_skXorjpsQgcDwNgDX4-66" style="edgeStyle=orthogonalEdgeStyle;rounded=0;orthogonalLoop=1;jettySize=auto;html=1;exitX=0.5;exitY=1;exitDx=0;exitDy=0;" parent="1" source="H_skXorjpsQgcDwNgDX4-67" target="H_skXorjpsQgcDwNgDX4-64" edge="1">
          <mxGeometry relative="1" as="geometry" />
        </mxCell>
        <mxCell id="H_skXorjpsQgcDwNgDX4-67" value="算&lt;br&gt;法&lt;br&gt;设&lt;br&gt;计&lt;br&gt;人&lt;br&gt;员" style="rounded=0;whiteSpace=wrap;html=1;" parent="1" vertex="1">
          <mxGeometry x="812.25" y="363" width="39.5" height="95" as="geometry" />
        </mxCell>
        <mxCell id="H_skXorjpsQgcDwNgDX4-68" style="edgeStyle=orthogonalEdgeStyle;rounded=0;orthogonalLoop=1;jettySize=auto;html=1;exitX=0.5;exitY=1;exitDx=0;exitDy=0;entryX=0.5;entryY=0;entryDx=0;entryDy=0;" parent="1" source="H_skXorjpsQgcDwNgDX4-69" target="H_skXorjpsQgcDwNgDX4-70" edge="1">
          <mxGeometry relative="1" as="geometry" />
        </mxCell>
        <mxCell id="H_skXorjpsQgcDwNgDX4-69" value="软&lt;br&gt;件&lt;br&gt;开&lt;br&gt;发&lt;br&gt;人&lt;br&gt;员" style="rounded=0;whiteSpace=wrap;html=1;" parent="1" vertex="1">
          <mxGeometry x="986.25" y="492" width="39.5" height="95" as="geometry" />
        </mxCell>
        <mxCell id="H_skXorjpsQgcDwNgDX4-70" value="软&lt;br&gt;件&lt;br&gt;测&lt;br&gt;试&lt;br&gt;人&lt;br&gt;员" style="rounded=0;whiteSpace=wrap;html=1;" parent="1" vertex="1">
          <mxGeometry x="986.25" y="621" width="39.5" height="95" as="geometry" />
        </mxCell>
        <mxCell id="H_skXorjpsQgcDwNgDX4-71" style="edgeStyle=orthogonalEdgeStyle;rounded=0;orthogonalLoop=1;jettySize=auto;html=1;exitX=0.5;exitY=1;exitDx=0;exitDy=0;" parent="1" source="H_skXorjpsQgcDwNgDX4-72" target="H_skXorjpsQgcDwNgDX4-69" edge="1">
          <mxGeometry relative="1" as="geometry" />
        </mxCell>
        <mxCell id="H_skXorjpsQgcDwNgDX4-72" value="算&lt;br&gt;法&lt;br&gt;设&lt;br&gt;计&lt;br&gt;人&lt;br&gt;员" style="rounded=0;whiteSpace=wrap;html=1;" parent="1" vertex="1">
          <mxGeometry x="986.25" y="363" width="39.5" height="95" as="geometry" />
        </mxCell>
        <mxCell id="H_skXorjpsQgcDwNgDX4-86" value="" style="rounded=0;whiteSpace=wrap;html=1;gradientColor=none;fillColor=none;dashed=1;" parent="1" vertex="1">
          <mxGeometry x="292" y="475" width="750" height="123" as="geometry" />
        </mxCell>
        <mxCell id="H_skXorjpsQgcDwNgDX4-87" value="" style="rounded=0;whiteSpace=wrap;html=1;gradientColor=none;fillColor=none;dashed=1;" parent="1" vertex="1">
          <mxGeometry x="292" y="609" width="750" height="123" as="geometry" />
        </mxCell>
      </root>
    </mxGraphModel>
  </diagram>
  <diagram id="6q84PyYSt9kQ3q8TxM9N" name="第 2 页">
    <mxGraphModel dx="969" dy="976" grid="0" gridSize="10" guides="1" tooltips="1" connect="1" arrows="1" fold="1" page="1" pageScale="1" pageWidth="770" pageHeight="570" math="0" shadow="0">
      <root>
        <mxCell id="0" />
        <mxCell id="1" parent="0" />
        <mxCell id="djuxfsMayVQm3gUOIp9I-92" value="" style="rounded=1;whiteSpace=wrap;html=1;fillColor=none;dashed=1;" parent="1" vertex="1">
          <mxGeometry x="1170" y="219" width="179" height="303" as="geometry" />
        </mxCell>
        <mxCell id="djuxfsMayVQm3gUOIp9I-79" value="" style="rounded=1;whiteSpace=wrap;html=1;fillColor=none;dashed=1;" parent="1" vertex="1">
          <mxGeometry x="973" y="219" width="152" height="195" as="geometry" />
        </mxCell>
        <mxCell id="djuxfsMayVQm3gUOIp9I-50" value="" style="rounded=1;whiteSpace=wrap;html=1;fillColor=none;dashed=1;" parent="1" vertex="1">
          <mxGeometry x="777" y="219" width="152" height="195" as="geometry" />
        </mxCell>
        <mxCell id="djuxfsMayVQm3gUOIp9I-93" style="edgeStyle=orthogonalEdgeStyle;rounded=0;orthogonalLoop=1;jettySize=auto;html=1;exitX=0.5;exitY=1;exitDx=0;exitDy=0;entryX=0.5;entryY=0;entryDx=0;entryDy=0;" parent="1" source="djuxfsMayVQm3gUOIp9I-43" target="djuxfsMayVQm3gUOIp9I-44" edge="1">
          <mxGeometry relative="1" as="geometry" />
        </mxCell>
        <mxCell id="djuxfsMayVQm3gUOIp9I-43" value="Receives&amp;nbsp; Request" style="rounded=1;whiteSpace=wrap;html=1;fillColor=#d5e8d4;strokeColor=#82b366;" parent="1" vertex="1">
          <mxGeometry x="889.5" y="9" width="119" height="60" as="geometry" />
        </mxCell>
        <mxCell id="djuxfsMayVQm3gUOIp9I-82" style="edgeStyle=orthogonalEdgeStyle;rounded=0;orthogonalLoop=1;jettySize=auto;html=1;exitX=1;exitY=0.5;exitDx=0;exitDy=0;entryX=0.5;entryY=0;entryDx=0;entryDy=0;" parent="1" source="djuxfsMayVQm3gUOIp9I-44" target="djuxfsMayVQm3gUOIp9I-53" edge="1">
          <mxGeometry relative="1" as="geometry" />
        </mxCell>
        <mxCell id="djuxfsMayVQm3gUOIp9I-86" value="Non GA" style="edgeLabel;html=1;align=center;verticalAlign=middle;resizable=0;points=[];" parent="djuxfsMayVQm3gUOIp9I-82" vertex="1" connectable="0">
          <mxGeometry x="0.0979" relative="1" as="geometry">
            <mxPoint x="-3" y="7" as="offset" />
          </mxGeometry>
        </mxCell>
        <mxCell id="djuxfsMayVQm3gUOIp9I-83" style="edgeStyle=orthogonalEdgeStyle;rounded=0;orthogonalLoop=1;jettySize=auto;html=1;exitX=0;exitY=0.5;exitDx=0;exitDy=0;entryX=0.5;entryY=0;entryDx=0;entryDy=0;" parent="1" source="djuxfsMayVQm3gUOIp9I-44" target="djuxfsMayVQm3gUOIp9I-47" edge="1">
          <mxGeometry relative="1" as="geometry" />
        </mxCell>
        <mxCell id="djuxfsMayVQm3gUOIp9I-84" value="GA" style="edgeLabel;html=1;align=center;verticalAlign=middle;resizable=0;points=[];" parent="djuxfsMayVQm3gUOIp9I-83" vertex="1" connectable="0">
          <mxGeometry x="-0.1429" relative="1" as="geometry">
            <mxPoint y="23" as="offset" />
          </mxGeometry>
        </mxCell>
        <mxCell id="djuxfsMayVQm3gUOIp9I-44" value="Generate &lt;br&gt;Device Split Proposals" style="rounded=0;whiteSpace=wrap;html=1;fillColor=#fff2cc;strokeColor=#d6b656;" parent="1" vertex="1">
          <mxGeometry x="889" y="105" width="120" height="60" as="geometry" />
        </mxCell>
        <mxCell id="djuxfsMayVQm3gUOIp9I-49" style="edgeStyle=orthogonalEdgeStyle;rounded=0;orthogonalLoop=1;jettySize=auto;html=1;exitX=0.5;exitY=1;exitDx=0;exitDy=0;" parent="1" source="djuxfsMayVQm3gUOIp9I-47" target="djuxfsMayVQm3gUOIp9I-48" edge="1">
          <mxGeometry relative="1" as="geometry" />
        </mxCell>
        <mxCell id="djuxfsMayVQm3gUOIp9I-47" value="Find &lt;br&gt;Micro Batch Split&lt;br&gt;Plan" style="rounded=0;whiteSpace=wrap;html=1;fillColor=#dae8fc;strokeColor=#6c8ebf;" parent="1" vertex="1">
          <mxGeometry x="793" y="238" width="120" height="60" as="geometry" />
        </mxCell>
        <mxCell id="djuxfsMayVQm3gUOIp9I-78" style="edgeStyle=orthogonalEdgeStyle;rounded=0;orthogonalLoop=1;jettySize=auto;html=1;exitX=1;exitY=0.5;exitDx=0;exitDy=0;entryX=0;entryY=0.5;entryDx=0;entryDy=0;" parent="1" source="djuxfsMayVQm3gUOIp9I-48" target="djuxfsMayVQm3gUOIp9I-53" edge="1">
          <mxGeometry relative="1" as="geometry" />
        </mxCell>
        <mxCell id="djuxfsMayVQm3gUOIp9I-48" value="Change Module Based On &lt;br&gt;Micro Batch Split &lt;br&gt;Plan" style="rounded=0;whiteSpace=wrap;html=1;fillColor=#dae8fc;strokeColor=#6c8ebf;" parent="1" vertex="1">
          <mxGeometry x="793" y="336" width="120" height="60" as="geometry" />
        </mxCell>
        <mxCell id="djuxfsMayVQm3gUOIp9I-52" style="edgeStyle=orthogonalEdgeStyle;rounded=0;orthogonalLoop=1;jettySize=auto;html=1;exitX=0.5;exitY=1;exitDx=0;exitDy=0;" parent="1" source="djuxfsMayVQm3gUOIp9I-53" target="djuxfsMayVQm3gUOIp9I-54" edge="1">
          <mxGeometry relative="1" as="geometry" />
        </mxCell>
        <mxCell id="djuxfsMayVQm3gUOIp9I-53" value="Find &lt;br&gt;Data Split&lt;br&gt;Plan" style="rounded=0;whiteSpace=wrap;html=1;fillColor=#f8cecc;strokeColor=#b85450;" parent="1" vertex="1">
          <mxGeometry x="989" y="238" width="120" height="60" as="geometry" />
        </mxCell>
        <mxCell id="djuxfsMayVQm3gUOIp9I-94" style="edgeStyle=orthogonalEdgeStyle;rounded=0;orthogonalLoop=1;jettySize=auto;html=1;exitX=1;exitY=0.5;exitDx=0;exitDy=0;entryX=0;entryY=0.5;entryDx=0;entryDy=0;" parent="1" source="djuxfsMayVQm3gUOIp9I-54" target="djuxfsMayVQm3gUOIp9I-70" edge="1">
          <mxGeometry relative="1" as="geometry" />
        </mxCell>
        <mxCell id="djuxfsMayVQm3gUOIp9I-54" value="Change Module Based On &lt;br&gt;Data Split &lt;br&gt;Plan" style="rounded=0;whiteSpace=wrap;html=1;fillColor=#f8cecc;strokeColor=#b85450;" parent="1" vertex="1">
          <mxGeometry x="989" y="336" width="120" height="60" as="geometry" />
        </mxCell>
        <mxCell id="djuxfsMayVQm3gUOIp9I-90" style="edgeStyle=orthogonalEdgeStyle;rounded=0;orthogonalLoop=1;jettySize=auto;html=1;exitX=0.5;exitY=1;exitDx=0;exitDy=0;entryX=0.5;entryY=0;entryDx=0;entryDy=0;" parent="1" source="djuxfsMayVQm3gUOIp9I-70" target="djuxfsMayVQm3gUOIp9I-71" edge="1">
          <mxGeometry relative="1" as="geometry" />
        </mxCell>
        <mxCell id="djuxfsMayVQm3gUOIp9I-70" value="Search&lt;br&gt;Pipeline Split &lt;br&gt;Plan" style="rounded=0;whiteSpace=wrap;html=1;fillColor=#e1d5e7;strokeColor=#9673a6;" parent="1" vertex="1">
          <mxGeometry x="1199" y="237" width="120" height="60" as="geometry" />
        </mxCell>
        <mxCell id="djuxfsMayVQm3gUOIp9I-91" style="edgeStyle=orthogonalEdgeStyle;rounded=0;orthogonalLoop=1;jettySize=auto;html=1;exitX=0.5;exitY=1;exitDx=0;exitDy=0;entryX=0.5;entryY=0;entryDx=0;entryDy=0;" parent="1" source="djuxfsMayVQm3gUOIp9I-71" target="djuxfsMayVQm3gUOIp9I-72" edge="1">
          <mxGeometry relative="1" as="geometry" />
        </mxCell>
        <mxCell id="djuxfsMayVQm3gUOIp9I-71" value="Change &lt;br&gt;AllReduce Instructions Generated In &lt;br&gt;Micro Batch Split To &lt;br&gt;GA Instructions" style="rounded=0;whiteSpace=wrap;html=1;fillColor=#e1d5e7;strokeColor=#9673a6;" parent="1" vertex="1">
          <mxGeometry x="1183" y="324" width="152" height="93" as="geometry" />
        </mxCell>
        <mxCell id="djuxfsMayVQm3gUOIp9I-97" style="edgeStyle=orthogonalEdgeStyle;rounded=0;orthogonalLoop=1;jettySize=auto;html=1;exitX=1;exitY=0.5;exitDx=0;exitDy=0;entryX=0;entryY=0.5;entryDx=0;entryDy=0;" parent="1" source="djuxfsMayVQm3gUOIp9I-72" target="djuxfsMayVQm3gUOIp9I-96" edge="1">
          <mxGeometry relative="1" as="geometry" />
        </mxCell>
        <mxCell id="djuxfsMayVQm3gUOIp9I-72" value="Change Module Based On &lt;br&gt;Pipeline Split &lt;br&gt;Plan" style="rounded=0;whiteSpace=wrap;html=1;fillColor=#e1d5e7;strokeColor=#9673a6;" parent="1" vertex="1">
          <mxGeometry x="1197.5" y="444" width="120" height="60" as="geometry" />
        </mxCell>
        <mxCell id="djuxfsMayVQm3gUOIp9I-88" value="Gadient Accumulation" style="text;html=1;strokeColor=none;fillColor=none;align=center;verticalAlign=middle;whiteSpace=wrap;rounded=0;dashed=1;labelBackgroundColor=none;" parent="1" vertex="1">
          <mxGeometry x="810.5" y="428" width="85" height="30" as="geometry" />
        </mxCell>
        <mxCell id="djuxfsMayVQm3gUOIp9I-89" value="Data Split" style="text;html=1;strokeColor=none;fillColor=none;align=center;verticalAlign=middle;whiteSpace=wrap;rounded=0;dashed=1;labelBackgroundColor=none;" parent="1" vertex="1">
          <mxGeometry x="1006.5" y="420" width="85" height="30" as="geometry" />
        </mxCell>
        <mxCell id="djuxfsMayVQm3gUOIp9I-95" value="Pipeline Split" style="text;html=1;strokeColor=none;fillColor=none;align=center;verticalAlign=middle;whiteSpace=wrap;rounded=0;dashed=1;labelBackgroundColor=none;" parent="1" vertex="1">
          <mxGeometry x="1238" y="532" width="85" height="30" as="geometry" />
        </mxCell>
        <mxCell id="djuxfsMayVQm3gUOIp9I-96" value="Return&amp;nbsp;&lt;br&gt;Minimum Cost Module &lt;br&gt;Filter By &lt;br&gt;Memory Constraint" style="rounded=1;whiteSpace=wrap;html=1;fillColor=#d5e8d4;strokeColor=#82b366;" parent="1" vertex="1">
          <mxGeometry x="1377" y="433" width="156" height="82" as="geometry" />
        </mxCell>
      </root>
    </mxGraphModel>
  </diagram>
  <diagram id="LzuHNEgyNND0JasPVuhC" name="第 3 页">
    <mxGraphModel dx="852" dy="477" grid="1" gridSize="10" guides="1" tooltips="1" connect="1" arrows="1" fold="1" page="1" pageScale="1" pageWidth="827" pageHeight="1169" math="0" shadow="0">
      <root>
        <mxCell id="0" />
        <mxCell id="1" parent="0" />
        <mxCell id="qYAv_WignJa36mamSxNx-1" value="work 0" style="rounded=0;whiteSpace=wrap;html=1;" parent="1" vertex="1">
          <mxGeometry x="95" y="55" width="120" height="30" as="geometry" />
        </mxCell>
        <mxCell id="qYAv_WignJa36mamSxNx-13" value="ai+bi=bs" style="text;html=1;align=center;verticalAlign=middle;resizable=0;points=[];autosize=1;strokeColor=none;fillColor=none;" parent="1" vertex="1">
          <mxGeometry x="95" y="315" width="70" height="30" as="geometry" />
        </mxCell>
        <mxCell id="qYAv_WignJa36mamSxNx-40" value="stored_models&lt;br&gt;[T,F]" style="rounded=0;whiteSpace=wrap;html=1;" parent="1" vertex="1">
          <mxGeometry x="660" y="300" width="120" height="60" as="geometry" />
        </mxCell>
        <mxCell id="cwSwGajBehmqVWe0vmV8-31" style="edgeStyle=none;rounded=0;orthogonalLoop=1;jettySize=auto;html=1;exitX=0.5;exitY=1;exitDx=0;exitDy=0;entryX=0.5;entryY=0;entryDx=0;entryDy=0;fillColor=#dae8fc;strokeColor=#000000;" edge="1" parent="1" source="cwSwGajBehmqVWe0vmV8-18" target="cwSwGajBehmqVWe0vmV8-26">
          <mxGeometry relative="1" as="geometry" />
        </mxCell>
        <mxCell id="cwSwGajBehmqVWe0vmV8-18" value="local_expert_count&lt;br&gt;(a1, b1)" style="rounded=0;whiteSpace=wrap;html=1;fillColor=none;" vertex="1" parent="1">
          <mxGeometry x="95" y="85" width="120" height="40" as="geometry" />
        </mxCell>
        <mxCell id="cwSwGajBehmqVWe0vmV8-21" value="work 0" style="rounded=0;whiteSpace=wrap;html=1;" vertex="1" parent="1">
          <mxGeometry x="95" y="190" width="120" height="30" as="geometry" />
        </mxCell>
        <mxCell id="cwSwGajBehmqVWe0vmV8-22" value="global_expert_count&lt;br&gt;(a1, a2)" style="rounded=0;whiteSpace=wrap;html=1;fillColor=none;" vertex="1" parent="1">
          <mxGeometry x="95" y="220" width="120" height="40" as="geometry" />
        </mxCell>
        <mxCell id="cwSwGajBehmqVWe0vmV8-23" value="work 1" style="rounded=0;whiteSpace=wrap;html=1;" vertex="1" parent="1">
          <mxGeometry x="284" y="55" width="120" height="30" as="geometry" />
        </mxCell>
        <mxCell id="cwSwGajBehmqVWe0vmV8-33" style="edgeStyle=none;rounded=0;orthogonalLoop=1;jettySize=auto;html=1;exitX=0.5;exitY=1;exitDx=0;exitDy=0;entryX=0.5;entryY=0;entryDx=0;entryDy=0;" edge="1" parent="1" source="cwSwGajBehmqVWe0vmV8-25" target="cwSwGajBehmqVWe0vmV8-21">
          <mxGeometry relative="1" as="geometry" />
        </mxCell>
        <mxCell id="cwSwGajBehmqVWe0vmV8-25" value="local_expert_count&lt;br&gt;(a2, b2)" style="rounded=0;whiteSpace=wrap;html=1;fillColor=none;" vertex="1" parent="1">
          <mxGeometry x="284" y="85" width="120" height="40" as="geometry" />
        </mxCell>
        <mxCell id="cwSwGajBehmqVWe0vmV8-26" value="work 1" style="rounded=0;whiteSpace=wrap;html=1;" vertex="1" parent="1">
          <mxGeometry x="284" y="190" width="120" height="30" as="geometry" />
        </mxCell>
        <mxCell id="cwSwGajBehmqVWe0vmV8-27" value="global_expert_count&lt;br&gt;(b1, b2)" style="rounded=0;whiteSpace=wrap;html=1;fillColor=none;" vertex="1" parent="1">
          <mxGeometry x="284" y="220" width="120" height="40" as="geometry" />
        </mxCell>
        <mxCell id="cwSwGajBehmqVWe0vmV8-35" value="work 0" style="rounded=0;whiteSpace=wrap;html=1;" vertex="1" parent="1">
          <mxGeometry x="570" y="55" width="120" height="30" as="geometry" />
        </mxCell>
        <mxCell id="cwSwGajBehmqVWe0vmV8-36" style="edgeStyle=none;rounded=0;orthogonalLoop=1;jettySize=auto;html=1;exitX=0.5;exitY=1;exitDx=0;exitDy=0;entryX=0.25;entryY=0;entryDx=0;entryDy=0;fillColor=#dae8fc;strokeColor=#0D38E3;" edge="1" parent="1" source="cwSwGajBehmqVWe0vmV8-38" target="cwSwGajBehmqVWe0vmV8-45">
          <mxGeometry relative="1" as="geometry" />
        </mxCell>
        <mxCell id="cwSwGajBehmqVWe0vmV8-47" style="edgeStyle=none;rounded=0;orthogonalLoop=1;jettySize=auto;html=1;exitX=0.75;exitY=1;exitDx=0;exitDy=0;entryX=0.5;entryY=0;entryDx=0;entryDy=0;strokeColor=#000000;" edge="1" parent="1" source="cwSwGajBehmqVWe0vmV8-38" target="cwSwGajBehmqVWe0vmV8-45">
          <mxGeometry relative="1" as="geometry" />
        </mxCell>
        <mxCell id="cwSwGajBehmqVWe0vmV8-38" value="local_expert_count&lt;br&gt;(a1, b1)" style="rounded=0;whiteSpace=wrap;html=1;fillColor=none;" vertex="1" parent="1">
          <mxGeometry x="570" y="85" width="120" height="40" as="geometry" />
        </mxCell>
        <mxCell id="cwSwGajBehmqVWe0vmV8-39" value="work 0" style="rounded=0;whiteSpace=wrap;html=1;" vertex="1" parent="1">
          <mxGeometry x="570" y="190" width="120" height="30" as="geometry" />
        </mxCell>
        <mxCell id="cwSwGajBehmqVWe0vmV8-40" value="global_expert_count&lt;br&gt;(a1)" style="rounded=0;whiteSpace=wrap;html=1;fillColor=none;" vertex="1" parent="1">
          <mxGeometry x="570" y="220" width="120" height="40" as="geometry" />
        </mxCell>
        <mxCell id="cwSwGajBehmqVWe0vmV8-41" value="work 1" style="rounded=0;whiteSpace=wrap;html=1;" vertex="1" parent="1">
          <mxGeometry x="759" y="55" width="120" height="30" as="geometry" />
        </mxCell>
        <mxCell id="cwSwGajBehmqVWe0vmV8-44" value="local_expert_count&lt;br&gt;(a2, b2)" style="rounded=0;whiteSpace=wrap;html=1;fillColor=none;" vertex="1" parent="1">
          <mxGeometry x="759" y="85" width="120" height="40" as="geometry" />
        </mxCell>
        <mxCell id="cwSwGajBehmqVWe0vmV8-45" value="work 1" style="rounded=0;whiteSpace=wrap;html=1;" vertex="1" parent="1">
          <mxGeometry x="759" y="190" width="120" height="30" as="geometry" />
        </mxCell>
        <mxCell id="cwSwGajBehmqVWe0vmV8-46" value="global_expert_count&lt;br&gt;(a1, b1, b2)" style="rounded=0;whiteSpace=wrap;html=1;fillColor=none;" vertex="1" parent="1">
          <mxGeometry x="759" y="220" width="120" height="40" as="geometry" />
        </mxCell>
        <mxCell id="cwSwGajBehmqVWe0vmV8-49" value="token" style="edgeLabel;html=1;align=center;verticalAlign=middle;resizable=0;points=[];labelBackgroundColor=none;" vertex="1" connectable="0" parent="1">
          <mxGeometry x="239.9955499565341" y="299.99724472394325" as="geometry" />
        </mxCell>
        <mxCell id="cwSwGajBehmqVWe0vmV8-50" style="edgeStyle=none;rounded=0;orthogonalLoop=1;jettySize=auto;html=1;exitX=0.75;exitY=1;exitDx=0;exitDy=0;strokeColor=#000000;" edge="1" parent="1">
          <mxGeometry relative="1" as="geometry">
            <mxPoint x="200" y="315" as="sourcePoint" />
            <mxPoint x="289.5" y="315" as="targetPoint" />
          </mxGeometry>
        </mxCell>
        <mxCell id="cwSwGajBehmqVWe0vmV8-51" value="parameter" style="edgeLabel;html=1;align=center;verticalAlign=middle;resizable=0;points=[];labelBackgroundColor=none;" vertex="1" connectable="0" parent="1">
          <mxGeometry x="239.9955499565341" y="339.99724472394325" as="geometry" />
        </mxCell>
        <mxCell id="cwSwGajBehmqVWe0vmV8-52" style="edgeStyle=none;rounded=0;orthogonalLoop=1;jettySize=auto;html=1;exitX=0.75;exitY=1;exitDx=0;exitDy=0;strokeColor=#0d38e3;" edge="1" parent="1">
          <mxGeometry relative="1" as="geometry">
            <mxPoint x="200" y="355" as="sourcePoint" />
            <mxPoint x="289.5" y="355" as="targetPoint" />
          </mxGeometry>
        </mxCell>
        <mxCell id="cwSwGajBehmqVWe0vmV8-191" value="work 0" style="rounded=0;whiteSpace=wrap;html=1;" vertex="1" parent="1">
          <mxGeometry x="60" y="450" width="120" height="30" as="geometry" />
        </mxCell>
        <mxCell id="cwSwGajBehmqVWe0vmV8-206" style="edgeStyle=orthogonalEdgeStyle;rounded=0;orthogonalLoop=1;jettySize=auto;html=1;exitX=0.75;exitY=1;exitDx=0;exitDy=0;entryX=0.25;entryY=0;entryDx=0;entryDy=0;strokeColor=#000000;" edge="1" parent="1" source="cwSwGajBehmqVWe0vmV8-192" target="cwSwGajBehmqVWe0vmV8-201">
          <mxGeometry relative="1" as="geometry">
            <Array as="points">
              <mxPoint x="90" y="600" />
              <mxPoint x="190" y="600" />
            </Array>
          </mxGeometry>
        </mxCell>
        <mxCell id="cwSwGajBehmqVWe0vmV8-192" value="S_0,1" style="rounded=0;whiteSpace=wrap;html=1;" vertex="1" parent="1">
          <mxGeometry x="60" y="480" width="40" height="30" as="geometry" />
        </mxCell>
        <mxCell id="cwSwGajBehmqVWe0vmV8-193" value="C_0,1" style="rounded=0;whiteSpace=wrap;html=1;" vertex="1" parent="1">
          <mxGeometry x="100" y="480" width="40" height="30" as="geometry" />
        </mxCell>
        <mxCell id="cwSwGajBehmqVWe0vmV8-205" style="edgeStyle=orthogonalEdgeStyle;rounded=0;orthogonalLoop=1;jettySize=auto;html=1;exitX=0.25;exitY=1;exitDx=0;exitDy=0;entryX=0.25;entryY=1;entryDx=0;entryDy=0;strokeColor=#FF3333;" edge="1" parent="1" source="cwSwGajBehmqVWe0vmV8-194" target="cwSwGajBehmqVWe0vmV8-199">
          <mxGeometry relative="1" as="geometry">
            <Array as="points">
              <mxPoint x="150" y="530" />
              <mxPoint x="390" y="530" />
            </Array>
          </mxGeometry>
        </mxCell>
        <mxCell id="cwSwGajBehmqVWe0vmV8-194" value="R_0,1" style="rounded=0;whiteSpace=wrap;html=1;" vertex="1" parent="1">
          <mxGeometry x="140" y="480" width="40" height="30" as="geometry" />
        </mxCell>
        <mxCell id="cwSwGajBehmqVWe0vmV8-196" value="work 1" style="rounded=0;whiteSpace=wrap;html=1;" vertex="1" parent="1">
          <mxGeometry x="300" y="450" width="120" height="30" as="geometry" />
        </mxCell>
        <mxCell id="cwSwGajBehmqVWe0vmV8-204" style="edgeStyle=orthogonalEdgeStyle;rounded=0;orthogonalLoop=1;jettySize=auto;html=1;exitX=0.25;exitY=1;exitDx=0;exitDy=0;entryX=0.25;entryY=1;entryDx=0;entryDy=0;strokeColor=#000000;" edge="1" parent="1" source="cwSwGajBehmqVWe0vmV8-197" target="cwSwGajBehmqVWe0vmV8-192">
          <mxGeometry relative="1" as="geometry">
            <Array as="points">
              <mxPoint x="310" y="550" />
              <mxPoint x="70" y="550" />
            </Array>
          </mxGeometry>
        </mxCell>
        <mxCell id="cwSwGajBehmqVWe0vmV8-197" value="S_1,1" style="rounded=0;whiteSpace=wrap;html=1;" vertex="1" parent="1">
          <mxGeometry x="300" y="480" width="40" height="30" as="geometry" />
        </mxCell>
        <mxCell id="cwSwGajBehmqVWe0vmV8-198" value="C_1,1" style="rounded=0;whiteSpace=wrap;html=1;" vertex="1" parent="1">
          <mxGeometry x="340" y="480" width="40" height="30" as="geometry" />
        </mxCell>
        <mxCell id="cwSwGajBehmqVWe0vmV8-209" style="edgeStyle=orthogonalEdgeStyle;rounded=0;orthogonalLoop=1;jettySize=auto;html=1;exitX=0.75;exitY=1;exitDx=0;exitDy=0;entryX=0.75;entryY=0;entryDx=0;entryDy=0;strokeColor=#FF3333;" edge="1" parent="1" source="cwSwGajBehmqVWe0vmV8-199" target="cwSwGajBehmqVWe0vmV8-203">
          <mxGeometry relative="1" as="geometry">
            <Array as="points">
              <mxPoint x="410" y="580" />
              <mxPoint x="290" y="580" />
            </Array>
          </mxGeometry>
        </mxCell>
        <mxCell id="cwSwGajBehmqVWe0vmV8-199" value="R_1,1" style="rounded=0;whiteSpace=wrap;html=1;" vertex="1" parent="1">
          <mxGeometry x="380" y="480" width="40" height="30" as="geometry" />
        </mxCell>
        <mxCell id="cwSwGajBehmqVWe0vmV8-200" value="work 2" style="rounded=0;whiteSpace=wrap;html=1;" vertex="1" parent="1">
          <mxGeometry x="180" y="690" width="120" height="30" as="geometry" />
        </mxCell>
        <mxCell id="cwSwGajBehmqVWe0vmV8-208" style="edgeStyle=orthogonalEdgeStyle;rounded=0;orthogonalLoop=1;jettySize=auto;html=1;exitX=0.75;exitY=0;exitDx=0;exitDy=0;entryX=0.75;entryY=1;entryDx=0;entryDy=0;strokeColor=#000000;" edge="1" parent="1" source="cwSwGajBehmqVWe0vmV8-201" target="cwSwGajBehmqVWe0vmV8-197">
          <mxGeometry relative="1" as="geometry">
            <Array as="points">
              <mxPoint x="210" y="600" />
              <mxPoint x="330" y="600" />
            </Array>
          </mxGeometry>
        </mxCell>
        <mxCell id="cwSwGajBehmqVWe0vmV8-201" value="S_2,1" style="rounded=0;whiteSpace=wrap;html=1;" vertex="1" parent="1">
          <mxGeometry x="180" y="660" width="40" height="30" as="geometry" />
        </mxCell>
        <mxCell id="cwSwGajBehmqVWe0vmV8-202" value="C_2,1" style="rounded=0;whiteSpace=wrap;html=1;" vertex="1" parent="1">
          <mxGeometry x="220" y="660" width="40" height="30" as="geometry" />
        </mxCell>
        <mxCell id="cwSwGajBehmqVWe0vmV8-207" style="edgeStyle=orthogonalEdgeStyle;rounded=0;orthogonalLoop=1;jettySize=auto;html=1;exitX=0.25;exitY=0;exitDx=0;exitDy=0;entryX=0.75;entryY=1;entryDx=0;entryDy=0;strokeColor=#FF3333;" edge="1" parent="1" source="cwSwGajBehmqVWe0vmV8-203" target="cwSwGajBehmqVWe0vmV8-194">
          <mxGeometry relative="1" as="geometry">
            <Array as="points">
              <mxPoint x="270" y="580" />
              <mxPoint x="170" y="580" />
            </Array>
          </mxGeometry>
        </mxCell>
        <mxCell id="cwSwGajBehmqVWe0vmV8-203" value="R_2,1" style="rounded=0;whiteSpace=wrap;html=1;" vertex="1" parent="1">
          <mxGeometry x="260" y="660" width="40" height="30" as="geometry" />
        </mxCell>
        <mxCell id="cwSwGajBehmqVWe0vmV8-210" value="work 0" style="rounded=0;whiteSpace=wrap;html=1;" vertex="1" parent="1">
          <mxGeometry x="450" y="450" width="120" height="30" as="geometry" />
        </mxCell>
        <mxCell id="cwSwGajBehmqVWe0vmV8-228" style="edgeStyle=orthogonalEdgeStyle;rounded=0;orthogonalLoop=1;jettySize=auto;html=1;exitX=0.25;exitY=1;exitDx=0;exitDy=0;entryX=0.25;entryY=1;entryDx=0;entryDy=0;strokeColor=#0D38E3;" edge="1" parent="1" source="cwSwGajBehmqVWe0vmV8-212" target="cwSwGajBehmqVWe0vmV8-218">
          <mxGeometry relative="1" as="geometry">
            <Array as="points">
              <mxPoint x="460" y="550" />
              <mxPoint x="700" y="550" />
            </Array>
          </mxGeometry>
        </mxCell>
        <mxCell id="cwSwGajBehmqVWe0vmV8-212" value="S_0,2" style="rounded=0;whiteSpace=wrap;html=1;" vertex="1" parent="1">
          <mxGeometry x="450" y="480" width="40" height="30" as="geometry" />
        </mxCell>
        <mxCell id="cwSwGajBehmqVWe0vmV8-213" value="C_0,2" style="rounded=0;whiteSpace=wrap;html=1;" vertex="1" parent="1">
          <mxGeometry x="490" y="480" width="40" height="30" as="geometry" />
        </mxCell>
        <mxCell id="cwSwGajBehmqVWe0vmV8-231" style="edgeStyle=orthogonalEdgeStyle;rounded=0;orthogonalLoop=1;jettySize=auto;html=1;exitX=0.75;exitY=1;exitDx=0;exitDy=0;entryX=0.25;entryY=0;entryDx=0;entryDy=0;strokeColor=#00FF00;" edge="1" parent="1" source="cwSwGajBehmqVWe0vmV8-215" target="cwSwGajBehmqVWe0vmV8-227">
          <mxGeometry relative="1" as="geometry">
            <Array as="points">
              <mxPoint x="560" y="580" />
              <mxPoint x="660" y="580" />
            </Array>
          </mxGeometry>
        </mxCell>
        <mxCell id="cwSwGajBehmqVWe0vmV8-215" value="R_0,2" style="rounded=0;whiteSpace=wrap;html=1;" vertex="1" parent="1">
          <mxGeometry x="530" y="480" width="40" height="30" as="geometry" />
        </mxCell>
        <mxCell id="cwSwGajBehmqVWe0vmV8-216" value="work 1" style="rounded=0;whiteSpace=wrap;html=1;" vertex="1" parent="1">
          <mxGeometry x="690" y="450" width="120" height="30" as="geometry" />
        </mxCell>
        <mxCell id="cwSwGajBehmqVWe0vmV8-232" style="edgeStyle=orthogonalEdgeStyle;rounded=0;orthogonalLoop=1;jettySize=auto;html=1;exitX=0.75;exitY=1;exitDx=0;exitDy=0;entryX=0.75;entryY=0;entryDx=0;entryDy=0;strokeColor=#0D38E3;" edge="1" parent="1" source="cwSwGajBehmqVWe0vmV8-218" target="cwSwGajBehmqVWe0vmV8-224">
          <mxGeometry relative="1" as="geometry">
            <Array as="points">
              <mxPoint x="720" y="600" />
              <mxPoint x="600" y="600" />
            </Array>
          </mxGeometry>
        </mxCell>
        <mxCell id="cwSwGajBehmqVWe0vmV8-218" value="S_1,2" style="rounded=0;whiteSpace=wrap;html=1;" vertex="1" parent="1">
          <mxGeometry x="690" y="480" width="40" height="30" as="geometry" />
        </mxCell>
        <mxCell id="cwSwGajBehmqVWe0vmV8-219" value="C_1,2" style="rounded=0;whiteSpace=wrap;html=1;" vertex="1" parent="1">
          <mxGeometry x="730" y="480" width="40" height="30" as="geometry" />
        </mxCell>
        <mxCell id="cwSwGajBehmqVWe0vmV8-229" style="edgeStyle=orthogonalEdgeStyle;rounded=0;orthogonalLoop=1;jettySize=auto;html=1;exitX=0.25;exitY=1;exitDx=0;exitDy=0;entryX=0.25;entryY=1;entryDx=0;entryDy=0;strokeColor=#00FF00;" edge="1" parent="1" source="cwSwGajBehmqVWe0vmV8-221" target="cwSwGajBehmqVWe0vmV8-215">
          <mxGeometry relative="1" as="geometry" />
        </mxCell>
        <mxCell id="cwSwGajBehmqVWe0vmV8-221" value="R_1,2" style="rounded=0;whiteSpace=wrap;html=1;" vertex="1" parent="1">
          <mxGeometry x="770" y="480" width="40" height="30" as="geometry" />
        </mxCell>
        <mxCell id="cwSwGajBehmqVWe0vmV8-222" value="work 2" style="rounded=0;whiteSpace=wrap;html=1;" vertex="1" parent="1">
          <mxGeometry x="570" y="690" width="120" height="30" as="geometry" />
        </mxCell>
        <mxCell id="cwSwGajBehmqVWe0vmV8-230" style="edgeStyle=orthogonalEdgeStyle;rounded=0;orthogonalLoop=1;jettySize=auto;html=1;exitX=0.25;exitY=0;exitDx=0;exitDy=0;entryX=0.75;entryY=1;entryDx=0;entryDy=0;strokeColor=#0D38E3;" edge="1" parent="1" source="cwSwGajBehmqVWe0vmV8-224" target="cwSwGajBehmqVWe0vmV8-212">
          <mxGeometry relative="1" as="geometry">
            <Array as="points">
              <mxPoint x="580" y="600" />
              <mxPoint x="480" y="600" />
            </Array>
          </mxGeometry>
        </mxCell>
        <mxCell id="cwSwGajBehmqVWe0vmV8-224" value="S_2,2" style="rounded=0;whiteSpace=wrap;html=1;" vertex="1" parent="1">
          <mxGeometry x="570" y="660" width="40" height="30" as="geometry" />
        </mxCell>
        <mxCell id="cwSwGajBehmqVWe0vmV8-225" value="C_2,2" style="rounded=0;whiteSpace=wrap;html=1;" vertex="1" parent="1">
          <mxGeometry x="610" y="660" width="40" height="30" as="geometry" />
        </mxCell>
        <mxCell id="cwSwGajBehmqVWe0vmV8-233" style="edgeStyle=orthogonalEdgeStyle;rounded=0;orthogonalLoop=1;jettySize=auto;html=1;exitX=0.75;exitY=0;exitDx=0;exitDy=0;entryX=0.75;entryY=1;entryDx=0;entryDy=0;strokeColor=#00FF00;" edge="1" parent="1" source="cwSwGajBehmqVWe0vmV8-227" target="cwSwGajBehmqVWe0vmV8-221">
          <mxGeometry relative="1" as="geometry">
            <Array as="points">
              <mxPoint x="680" y="580" />
              <mxPoint x="800" y="580" />
            </Array>
          </mxGeometry>
        </mxCell>
        <mxCell id="cwSwGajBehmqVWe0vmV8-227" value="R_2,2" style="rounded=0;whiteSpace=wrap;html=1;" vertex="1" parent="1">
          <mxGeometry x="650" y="660" width="40" height="30" as="geometry" />
        </mxCell>
        <mxCell id="cwSwGajBehmqVWe0vmV8-238" value="" style="endArrow=classic;html=1;rounded=0;strokeColor=#000000;" edge="1" parent="1">
          <mxGeometry width="50" height="50" relative="1" as="geometry">
            <mxPoint x="405" y="700" as="sourcePoint" />
            <mxPoint x="471" y="700" as="targetPoint" />
          </mxGeometry>
        </mxCell>
        <mxCell id="cwSwGajBehmqVWe0vmV8-240" value="stage 1" style="text;html=1;strokeColor=none;fillColor=none;align=center;verticalAlign=middle;whiteSpace=wrap;rounded=0;labelBackgroundColor=none;" vertex="1" parent="1">
          <mxGeometry x="408" y="670" width="60" height="30" as="geometry" />
        </mxCell>
        <mxCell id="cwSwGajBehmqVWe0vmV8-241" value="" style="endArrow=classic;html=1;rounded=0;strokeColor=#0D38E3;" edge="1" parent="1">
          <mxGeometry width="50" height="50" relative="1" as="geometry">
            <mxPoint x="404" y="740" as="sourcePoint" />
            <mxPoint x="470" y="740" as="targetPoint" />
          </mxGeometry>
        </mxCell>
        <mxCell id="cwSwGajBehmqVWe0vmV8-242" value="stage 2" style="text;html=1;strokeColor=none;fillColor=none;align=center;verticalAlign=middle;whiteSpace=wrap;rounded=0;labelBackgroundColor=none;" vertex="1" parent="1">
          <mxGeometry x="407" y="710" width="60" height="30" as="geometry" />
        </mxCell>
        <mxCell id="cwSwGajBehmqVWe0vmV8-243" value="" style="endArrow=classic;html=1;rounded=0;strokeColor=#FF3333;" edge="1" parent="1">
          <mxGeometry width="50" height="50" relative="1" as="geometry">
            <mxPoint x="405" y="790" as="sourcePoint" />
            <mxPoint x="471" y="790" as="targetPoint" />
          </mxGeometry>
        </mxCell>
        <mxCell id="cwSwGajBehmqVWe0vmV8-244" value="stage 3" style="text;html=1;strokeColor=none;fillColor=none;align=center;verticalAlign=middle;whiteSpace=wrap;rounded=0;labelBackgroundColor=none;" vertex="1" parent="1">
          <mxGeometry x="408" y="760" width="60" height="30" as="geometry" />
        </mxCell>
        <mxCell id="cwSwGajBehmqVWe0vmV8-245" value="" style="endArrow=classic;html=1;rounded=0;strokeColor=#00FF00;" edge="1" parent="1">
          <mxGeometry width="50" height="50" relative="1" as="geometry">
            <mxPoint x="405" y="840" as="sourcePoint" />
            <mxPoint x="471" y="840" as="targetPoint" />
          </mxGeometry>
        </mxCell>
        <mxCell id="cwSwGajBehmqVWe0vmV8-246" value="stage 4" style="text;html=1;strokeColor=none;fillColor=none;align=center;verticalAlign=middle;whiteSpace=wrap;rounded=0;labelBackgroundColor=none;" vertex="1" parent="1">
          <mxGeometry x="408" y="810" width="60" height="30" as="geometry" />
        </mxCell>
      </root>
    </mxGraphModel>
  </diagram>
</mxfile>
